# xmcd
#
# Track frame offsets: 
#        150
#        19514
#        44859
#        68137
#        105948
#        129400
#        158611
#        177128
#        197384
#
# Disc length: 3303 seconds
#
# Revision: 2
# Processed by: cddbd v1.5.2PL0 Copyright (c) Steve Scherf et al.
# Submitted via: ExactAudioCopy v0.99pb4
#
DISCID=680ce509
DTITLE=Augury - Fragmentary Evidence
DYEAR=2009
DGENRE=Death Metal
TTITLE0=Aetheral
TTITLE1=Simian Cattle
TTITLE2=Orphans Of Living
TTITLE3=Jupiter To Ignite
TTITLE4=Sovereigns Unknown
TTITLE5=Skyless
TTITLE6=Faith Puppeteers
TTITLE7=Brimstone Landscapes
TTITLE8=Oversee The Rebirth
EXTD=
EXTT0=
EXTT1=
EXTT2=
EXTT3=
EXTT4=
EXTT5=
EXTT6=
EXTT7=
EXTT8=
PLAYORDER=
